<?xml version="1.0" encoding="UTF-8"?>
<!DOCTYPE svg PUBLIC "-//W3C//DTD SVG 1.1//EN" "http://www.w3.org/Graphics/SVG/1.1/DTD/svg11.dtd">
<!-- Creator: CorelDRAW -->
<svg xmlns="http://www.w3.org/2000/svg" xml:space="preserve" width="67.7333mm" height="25.7477mm" version="1.1" style="shape-rendering:geometricPrecision; text-rendering:geometricPrecision; image-rendering:optimizeQuality; fill-rule:evenodd; clip-rule:evenodd"
viewBox="0 0 957.14 363.84"
 xmlns:xlink="http://www.w3.org/1999/xlink"
 xmlns:xodm="http://www.corel.com/coreldraw/odm/2003">
 <defs>
  <style type="text/css">
   <![CDATA[
    .fil0 {fill:#2F8DCD;fill-rule:nonzero}
    .fil2 {fill:#34A5DE;fill-rule:nonzero}
    .fil3 {fill:#5DBBEB;fill-rule:nonzero}
    .fil1 {fill:#83CFEF;fill-rule:nonzero}
    .fil4 {fill:#E6F5FC;fill-rule:nonzero}
   ]]>
  </style>
 </defs>
 <g id="Camada_x0020_1">
  <metadata id="CorelCorpID_0Corel-Layer"/>
  <g id="_2392436902976">
   <polygon class="fil0" points="610.87,0 520.95,0 702.87,181.92 792.8,181.92 "/>
   <polygon class="fil1" points="610.87,363.84 520.95,363.84 702.87,181.92 792.8,181.92 "/>
   <polygon class="fil2" points="572.32,51.36 482.39,51.36 612.95,181.92 702.87,181.92 "/>
   <polygon class="fil3" points="572.32,312.48 482.39,312.48 612.95,181.92 702.87,181.92 "/>
   <polygon class="fil1" points="816.43,205.56 771.47,250.52 833.43,312.48 923.35,312.48 "/>
   <polygon class="fil0" points="816.43,158.29 923.35,51.36 833.43,51.36 771.47,113.33 "/>
   <path class="fil4" d="M941.82 50.73l1.43 0c1.67,0 3.02,-0.56 3.02,-1.91 0,-1.19 -0.87,-1.98 -2.78,-1.98 -0.79,0 -1.35,0.08 -1.67,0.16l0 3.73zm-0.08 7.38l-3.02 0 0 -13.02c1.19,-0.24 2.86,-0.4 5,-0.4 2.46,0 3.57,0.4 4.52,0.95 0.72,0.56 1.27,1.59 1.27,2.86 0,1.43 -1.11,2.54 -2.7,3.02l0 0.16c1.27,0.48 1.99,1.43 2.38,3.18 0.4,1.99 0.63,2.78 0.95,3.25l-3.25 0c-0.4,-0.48 -0.63,-1.67 -1.03,-3.18 -0.24,-1.43 -1.03,-2.06 -2.7,-2.06l-1.43 0 0 5.24zm-8.02 -6.83c0,5.8 4.29,10.4 10.16,10.4 5.72,0 9.92,-4.6 9.92,-10.32 0,-5.8 -4.21,-10.48 -10,-10.48 -5.8,0 -10.08,4.68 -10.08,10.4zm23.42 0c0,7.38 -5.8,13.18 -13.34,13.18 -7.46,0 -13.42,-5.8 -13.42,-13.18 0,-7.22 5.95,-13.02 13.42,-13.02 7.54,0 13.34,5.8 13.34,13.02z"/>
   <path class="fil4" d="M118.44 260.14l-9.11 -22 -50.22 0 10.44 -26.67 62.89 0 23.11 48.67 -37.11 0zm-118.44 0l76.22 -159.99 3.11 0 46.89 98.66 -32.89 0 -15.56 -37.55 -40.89 98.89 -36.89 0z"/>
   <path class="fil4" d="M266.88 197.92l-39.78 0 0 -24.89 72 0 0 58c-9.33,11.55 -20.07,20 -32.22,25.33l0 -58.44zm-76.22 55.22c-12.59,-7.03 -22.56,-16.78 -29.89,-29.22 -7.33,-12.44 -11,-26.44 -11,-42 0,-15.41 3.67,-29.33 11,-41.78 7.33,-12.44 17.37,-22.18 30.11,-29.22 12.74,-7.03 26.96,-10.55 42.66,-10.55 10.67,0 20.81,1.78 30.44,5.33 9.63,3.56 18.14,8.89 25.55,16l-18 25.33c-5.78,-4.59 -11.97,-8.18 -18.56,-10.78 -6.59,-2.59 -13.3,-3.89 -20.11,-3.89 -9.04,0 -17.15,2.19 -24.33,6.56 -7.19,4.37 -12.78,10.33 -16.78,17.89 -4,7.55 -6,16 -6,25.33 0,9.63 2.07,18.33 6.22,26.11 4.14,7.78 9.81,13.85 17,18.22 7.19,4.37 15.15,6.56 23.89,6.56 7.55,0 14.67,-1.56 21.33,-4.67l0 32.44c-6.81,1.92 -14.15,2.89 -22,2.89 -15.11,0 -28.96,-3.52 -41.55,-10.55z"/>
   <path class="fil4" d="M325.32 145.03l35.56 0 0 115.11 -35.56 0 0 -115.11zm54.66 66.89l-6.44 0 0 -27.78 2.22 0c10.67,0 18.55,-2.52 23.67,-7.55 5.11,-5.03 7.66,-11.18 7.66,-18.44 0,-7.11 -2.55,-13.18 -7.66,-18.22 -5.11,-5.03 -13,-7.56 -23.67,-7.56l-50.44 0 0 -27.78 54 0c12.89,0 24.18,2.33 33.89,7 9.7,4.67 17.14,11.08 22.33,19.22 5.18,8.15 7.78,17.33 7.78,27.55 0,10.08 -2.55,19.15 -7.67,27.22 -5.11,8.08 -12.41,14.41 -21.89,19l35.11 55.55 -39.78 0 -29.11 -48.22z"/>
   <polygon class="fil4" points="507.53,104.59 471.98,104.59 471.98,147.03 507.53,147.03 "/>
   <polygon class="fil4" points="471.98,260.14 507.53,260.14 507.53,173.03 471.98,173.03 "/>
  </g>
 </g>
</svg>
