<?xml version="1.0" encoding="UTF-8"?>
<!DOCTYPE svg PUBLIC "-//W3C//DTD SVG 1.1//EN" "http://www.w3.org/Graphics/SVG/1.1/DTD/svg11.dtd">
<!-- Creator: CorelDRAW -->
<svg xmlns="http://www.w3.org/2000/svg" xml:space="preserve" width="67.7334mm" height="50.8374mm" version="1.1" style="shape-rendering:geometricPrecision; text-rendering:geometricPrecision; image-rendering:optimizeQuality; fill-rule:evenodd; clip-rule:evenodd"
viewBox="0 0 2111.38 1584.7"
 xmlns:xlink="http://www.w3.org/1999/xlink"
 xmlns:xodm="http://www.corel.com/coreldraw/odm/2003">
 <defs>
  <style type="text/css">
   <![CDATA[
    .fil0 {fill:white}
   ]]>
  </style>
 </defs>
 <g id="Camada_x0020_1">
  <metadata id="CorelCorpID_0Corel-Layer"/>
  <g id="_2393796888304">
   <path class="fil0" d="M1891.41 1244.46c-11.26,17.51 4.63,116.33 -107.14,167.28 -182.53,83.22 -493.67,-43.33 -649.98,-126.07 -219.1,-115.97 -456.38,-289.02 -623.65,-480.46 -125.99,-144.19 -453.69,-590.06 -107.79,-682.7 140.78,-37.71 329.55,23.48 457.13,73.94 65.85,26.04 126.36,57.07 186.97,89.6 23.14,12.43 164.22,101.92 172.43,104.14 -28.5,-41.54 -341.38,-207.5 -403.67,-233.08 -158.28,-65.01 -347.24,-132.17 -521.2,-106.5 -438.88,64.75 -110.25,599.99 50.68,772.13 223.15,238.7 428.52,406.68 721.97,553.66 173.79,87.04 562.09,239.48 744.74,95.13 58.37,-46.14 106.42,-161.73 79.52,-227.07z"/>
   <path class="fil0" d="M1423.05 1183.45l184.24 0 0.13 -315.16c27.94,18.48 133.4,158.19 160.88,157.83 22.75,-0.3 130.95,-135.41 160.7,-157.83l0 315.16 182.37 0 -0.13 -709.64c-75.88,0 -61.26,-4.08 -110.65,52.28 -25.06,28.6 -53.4,56.11 -78.02,84.92 -29.5,34.52 -126.55,146.41 -156.5,169.38 -23.82,-15.64 -118.8,-135.31 -153.83,-169.9 -26.37,-26.04 -51.1,-58.9 -77.17,-85.77 -55.46,-57.16 -21.43,-50.91 -112.03,-50.91l0 709.64z"/>
   <path class="fil0" d="M965.59 635.94c29.86,-8.44 151.92,-3.99 176.67,15.74 40.15,32.02 37.16,102.93 6.12,137.02 -30.34,33.32 -123.2,28.17 -171.69,24.23 -29.52,-2.4 2.53,-150.43 -11.1,-177zm0.8 502.48l0 -162.94 94.33 0 120.95 207.44 202.79 0.52 9.62 -5.8 -147.45 -244.67c11.18,-16.58 47.13,-42.14 66.98,-73.36 58.82,-92.52 46.51,-233.15 -33.59,-313.53 -104.76,-105.13 -348.92,-72.28 -493.72,-72.28 0,140.78 0,281.57 0,422.35 0,107.85 -23.32,92.79 55.13,154.97 29.92,23.71 92.57,71.16 124.96,87.29z"/>
   <path class="fil0" d="M224.6 791.11l215.25 232.75c-161.02,2.07 -215.25,-65.4 -215.25,-232.75zm1710.85 529.55c-41.06,151.03 -93.83,226.31 -264.59,245.66 -146.07,16.56 -293.96,-20.59 -429.94,-69.96 -214.04,-77.73 -440.85,-210.73 -645.93,-376.72 -164.9,-133.47 -379.88,-354.49 -474.76,-545.75 -152.82,-308.07 -115.68,-569.6 275.89,-569.6l0 -4.29c-151.04,0 -310.86,12.16 -374.51,176.49 -62.09,160.31 24.09,289.61 77.6,423.22 5.36,13.38 -131.47,221.78 -8.13,429.97 76.23,128.67 244.86,182.31 386.68,153.94 141.56,-28.31 58.3,-69.5 179.7,17.18 50.61,36.14 107.55,79.2 163.72,112.84 128.4,76.88 226.22,130.65 366.63,186.5 220.1,87.56 747.63,194.82 747.63,-179.49z"/>
   <path class="fil0" d="M555.82 734.31l176.89 1.08c-43.43,-172.2 -130.92,-254.1 -312.16,-268.9 -22.11,-1.8 -46.88,-0.43 -69.03,1.63 -29.56,2.75 -15.39,12.6 -3.64,36.76 15.8,32.5 34.27,61.89 53.35,92.44 37.78,60.5 37.39,23.87 90.01,55.78 51.15,31.02 39.04,51.74 64.58,81.21z"/>
  </g>
 </g>
</svg>
