<?xml version="1.0" encoding="UTF-8"?>
<!DOCTYPE svg PUBLIC "-//W3C//DTD SVG 1.1//EN" "http://www.w3.org/Graphics/SVG/1.1/DTD/svg11.dtd">
<!-- Creator: CorelDRAW -->
<svg xmlns="http://www.w3.org/2000/svg" xml:space="preserve" width="67.7333mm" height="22.3408mm" version="1.1" style="shape-rendering:geometricPrecision; text-rendering:geometricPrecision; image-rendering:optimizeQuality; fill-rule:evenodd; clip-rule:evenodd"
viewBox="0 0 1133.81 373.97"
 xmlns:xlink="http://www.w3.org/1999/xlink"
 xmlns:xodm="http://www.corel.com/coreldraw/odm/2003">
 <defs>
  <style type="text/css">
   <![CDATA[
    .str0 {stroke:white;stroke-width:3.35;stroke-miterlimit:22.9256}
    .fil1 {fill:none}
    .fil0 {fill:white}
    .fil4 {fill:white;fill-rule:nonzero}
    .fil2 {fill:white;fill-rule:nonzero}
    .fil3 {fill:white;fill-rule:nonzero}
   ]]>
  </style>
 </defs>
 <g id="Camada_x0020_1">
  <metadata id="CorelCorpID_0Corel-Layer"/>
  <g id="_2392449887008">
   <g>
    <path class="fil0" d="M173.11 296.75c19.56,-11.62 37.23,-19.54 59.16,-26.23 23.38,-7.14 40.33,-6.72 49.12,-9.32 -21.34,-6.27 -79.68,11.29 -97.99,19.56 -17.3,7.81 -30.46,14.05 -44.08,23.51 -22.8,18.87 -23.4,19.23 -41.81,41.43 3.11,-2.22 6.66,-2.01 11.46,-0.84 0.03,0.18 -0.1,0.46 -0.13,0.53 -0.03,0.07 -0.13,0.44 -0.17,0.52l1.06 5.81c5.84,-14.22 50.34,-45.04 63.39,-54.98zm-119.52 32.03c12.81,4.46 5.03,-0.01 15.65,5.86 21.23,-23.88 84.87,-53.41 115.77,-63.04l36.39 -10.1c-7.48,-1.69 -40.83,4.95 -47.78,7.03 -65.6,19.57 -76.25,38.43 -120.03,60.25zm-23.92 -52.87c-8.67,-9.11 -16.25,-12.3 -29.67,-11.88 1.97,9.48 4.29,19.3 10.48,24.86 8.47,7.61 14.35,4.46 24.02,8.6 -6.46,-8 -13.96,-13.58 -19.61,-20.3 10.12,8.07 22.3,14.05 27.04,30.26 -0.12,-0.96 -7.86,-26.93 -12.26,-31.54zm25.84 20.94c12.21,-4.23 32.83,-5.07 33.59,-35.73 -21.97,1.56 -33.67,10.47 -36.13,29.65 -0.82,6.4 -3.05,11.4 -3.34,16.2 0.56,-2.99 0.53,-2.77 1.7,-5.24 4.87,-10.29 0.4,-8.54 8.12,-11.87 -1.91,4.55 -2.19,3.74 -3.94,7zm143.26 57.6c4.02,-9.67 10.72,-17.15 17.14,-25.97 6.72,-9.25 24.01,-23.41 33.24,-31.1 6.65,-5.14 27.52,-16.15 36.32,-18.76l7.77 -3.19c-3.26,-1.75 -7.03,-0.55 -11.08,0.62 -3.11,0.9 -5.71,1.91 -8.7,2.97 -21.11,7.47 -51.91,25.73 -63.89,44.82 -7.12,11.34 -14.57,22.81 -20.1,35 2.43,-2.35 1.92,-4.33 5.54,-5.12 5.95,-1.31 3.65,0.62 3.77,0.74zm-160.35 -128.46c-1.68,1.56 -5.97,8.92 -7.17,12.2 -1.9,5.2 -2.25,10.82 -1.75,16.37 1.26,14.05 10.56,18.15 12.87,23.81l-0.66 -21.27c2.59,4.81 2.76,14.94 3.29,21.46 5.16,-4.98 10.81,-18.83 9,-28.63 -1.38,-7.44 -9.39,-22.64 -15.57,-23.93zm128.48 107.26c-1.93,-4.64 -6.03,-6.08 5.33,-3 6.39,1.75 4.01,0.27 11.15,-8.15 8.47,-9.97 24.69,-20.08 35.47,-27.8 19.34,-10.62 32.75,-18.01 55.65,-23.24l20.57 -4.25c0.12,-0.36 0.55,-0.27 0.81,-0.44 -36.08,0.44 -59.29,8.86 -86.09,22.76 -16.97,8.8 -31.74,21.13 -44.94,34.85 -5.96,6.2 -6.43,7.21 -11.31,15.15 11.2,-3.41 3.91,-7.87 13.35,-5.88z"/>
    <g>
     <g>
      <path class="fil0" d="M192.88 166.14l15.65 -82.97 -15.65 82.97zm-92.27 3.89l76 8.43 -76 -8.43zm65.61 -57.35l33.59 -30.47 -33.59 30.47zm-4.95 6.85l21.23 49.06 -21.23 -49.06zm-64.01 42.86l56.07 -45 -56.07 45zm58.7 50.32l23.63 -22.5 -23.63 22.5zm-59.59 -33.37l41.43 34.52 -41.43 -34.52zm106.51 7.98l37.66 11.61 -37.66 -11.61zm-117.25 -28.44c6.29,-1.75 12.8,1.93 14.55,8.21 0.24,0.87 0.38,1.74 0.42,2.6l0.01 0.33c0.11,5.26 -3.34,10.14 -8.65,11.62 -6.29,1.75 -12.8,-1.93 -14.55,-8.21 -1.75,-6.29 1.93,-12.8 8.21,-14.55zm120.65 -92.58c4.57,-1.27 9.31,1.4 10.58,5.97 0.74,2.67 0.14,5.4 -1.4,7.46 -0.19,0.25 -0.4,0.5 -0.61,0.73 -1.04,1.11 -2.38,1.95 -3.95,2.39 -0.78,0.22 -1.58,0.32 -2.35,0.32l-0.01 -0c-3.74,-0.02 -7.17,-2.5 -8.22,-6.29 -1.27,-4.57 1.4,-9.31 5.97,-10.58zm-49.39 40c3.71,-1.03 7.55,1.14 8.59,4.85 1.03,3.71 -1.14,7.55 -4.85,8.58 -3.71,1.03 -7.55,-1.14 -8.59,-4.85 -1.03,-3.71 1.14,-7.55 4.85,-8.58zm29.35 59.77c7.77,-2.16 15.82,2.38 17.98,10.15 2.16,7.77 -2.38,15.82 -10.15,17.98 -5.37,1.49 -10.87,-0.22 -14.47,-3.98l-0.02 -0.02c-1.6,-1.68 -2.82,-3.76 -3.48,-6.15 -2.16,-7.77 2.38,-15.82 10.15,-17.98zm-42.21 43.19c4.45,-1.24 9.01,0.24 11.92,3.44l0.23 0.26c1.09,1.27 1.93,2.8 2.4,4.51 1.75,6.29 -1.93,12.8 -8.21,14.55 -6.29,1.75 -12.8,-1.93 -14.55,-8.21 -1.75,-6.29 1.93,-12.8 8.21,-14.55zm70.8 -128.8l35.07 53.19 -35.07 -53.19zm43.34 71.59l-7.23 39.94 7.23 -39.94zm-54.67 22.17l45.5 -27.21 -45.5 27.21zm-37.14 -59.87l81.15 28.63 -81.15 -28.63zm89.63 15.25c6.29,-1.75 12.8,1.93 14.55,8.21 1.75,6.28 -1.93,12.8 -8.21,14.55 -6.29,1.75 -12.8,-1.93 -14.55,-8.21 -0.11,-0.39 -0.19,-0.78 -0.26,-1.16l-0.01 -0.05c-0.57,-3.38 0.37,-6.73 2.39,-9.29l0.06 -0.08c1.49,-1.86 3.56,-3.28 6.03,-3.97zm-8.65 62.71c1.21,-0.34 2.43,-0.43 3.61,-0.32l0.15 0.02c3.91,0.44 7.34,3.18 8.46,7.2 1.47,5.28 -1.62,10.75 -6.89,12.21 -5.28,1.47 -10.74,-1.62 -12.21,-6.89 -1.47,-5.28 1.62,-10.75 6.89,-12.21z"/>
      <path id="_1" class="fil1 str0" d="M192.88 166.14l15.65 -82.97m-107.92 86.85l76 8.43m-10.39 -65.78l33.59 -30.47m-38.55 37.33l21.23 49.06m-85.25 -6.2l56.07 -45m2.63 95.32l23.63 -22.5m-83.22 -10.87l41.43 34.52m65.08 -26.54l37.66 11.61m-154.91 -40.05c6.29,-1.75 12.8,1.93 14.55,8.21 0.24,0.87 0.38,1.74 0.42,2.6l0.01 0.33c0.11,5.26 -3.34,10.14 -8.65,11.62 -6.29,1.75 -12.8,-1.93 -14.55,-8.21 -1.75,-6.29 1.93,-12.8 8.21,-14.55zm120.65 -92.58c4.57,-1.27 9.31,1.4 10.58,5.97 0.74,2.67 0.14,5.4 -1.4,7.46 -0.19,0.25 -0.4,0.5 -0.61,0.73 -1.04,1.11 -2.38,1.95 -3.95,2.39 -0.78,0.22 -1.58,0.32 -2.35,0.32l-0.01 -0c-3.74,-0.02 -7.17,-2.5 -8.22,-6.29 -1.27,-4.57 1.4,-9.31 5.97,-10.58zm-49.39 40c3.71,-1.03 7.55,1.14 8.59,4.85 1.03,3.71 -1.14,7.55 -4.85,8.58 -3.71,1.03 -7.55,-1.14 -8.59,-4.85 -1.03,-3.71 1.14,-7.55 4.85,-8.58zm29.35 59.77c7.77,-2.16 15.82,2.38 17.98,10.15 2.16,7.77 -2.38,15.82 -10.15,17.98 -5.37,1.49 -10.87,-0.22 -14.47,-3.98l-0.02 -0.02c-1.6,-1.68 -2.82,-3.76 -3.48,-6.15 -2.16,-7.77 2.38,-15.82 10.15,-17.98zm-42.21 43.19c4.45,-1.24 9.01,0.24 11.92,3.44l0.23 0.26c1.09,1.27 1.93,2.8 2.4,4.51 1.75,6.29 -1.93,12.8 -8.21,14.55 -6.29,1.75 -12.8,-1.93 -14.55,-8.21 -1.75,-6.29 1.93,-12.8 8.21,-14.55zm70.8 -128.8l35.07 53.19m8.28 18.4l-7.23 39.94m-47.44 -17.76l45.5 -27.21m-82.64 -32.66l81.15 28.63m8.47 -13.39c6.29,-1.75 12.8,1.93 14.55,8.21 1.75,6.28 -1.93,12.8 -8.21,14.55 -6.29,1.75 -12.8,-1.93 -14.55,-8.21 -0.11,-0.39 -0.19,-0.78 -0.26,-1.16l-0.01 -0.05c-0.57,-3.38 0.37,-6.73 2.39,-9.29l0.06 -0.08c1.49,-1.86 3.56,-3.28 6.03,-3.97zm-8.65 62.71c1.21,-0.34 2.43,-0.43 3.61,-0.32l0.15 0.02c3.91,0.44 7.34,3.18 8.46,7.2 1.47,5.28 -1.62,10.75 -6.89,12.21 -5.28,1.47 -10.74,-1.62 -12.21,-6.89 -1.47,-5.28 1.62,-10.75 6.89,-12.21z"/>
     </g>
     <path class="fil0 str0" d="M205.43 63.21c6.28,-1.75 12.8,1.93 14.55,8.21 1.75,6.29 -1.93,12.8 -8.21,14.55 -6.29,1.75 -12.8,-1.93 -14.55,-8.21 -1.75,-6.29 1.93,-12.8 8.21,-14.55zm49.49 62.48c8.46,-2.35 17.22,2.59 19.57,11.05 2.36,8.46 -2.59,17.22 -11.05,19.57 -8.46,2.36 -17.22,-2.59 -19.57,-11.05 -2.36,-8.46 2.59,-17.22 11.05,-19.57zm-99.31 -24.04c6.29,-1.75 12.8,1.93 14.55,8.21 1.75,6.29 -1.93,12.8 -8.21,14.55 -6.28,1.75 -12.8,-1.93 -14.55,-8.21 -1.75,-6.29 1.93,-12.8 8.21,-14.55z"/>
    </g>
    <path class="fil2" d="M9.86 176.71c0,6.68 3.15,16.84 9.92,21.12 0,-6.77 0,-37.47 0,-43.51 -7.76,6.71 -9.92,15.71 -9.92,22.39zm311.55 -43.7c-1.1,-73.51 -65.84,-133.01 -145.28,-133.01 -79.42,0 -144.16,59.47 -145.28,132.96 -3.43,1.89 -5.74,5.36 -5.74,9.34l0 68.1c0,6 5.24,10.86 11.7,10.86l10.65 0 0 -89.83 -2.16 0c1.19,-39.61 22.81,-74.47 55.42,-95.85l2.28 2.12c2.85,2.64 7.27,3.17 10.72,1.25 18.27,-10.13 39.62,-15.95 62.41,-15.95 22.76,0 44.08,5.81 62.34,15.91 3.46,1.91 7.87,1.38 10.72,-1.26l2.28 -2.12c32.65,21.38 54.3,56.27 55.5,95.9l-2.25 0 0 89.83 0.05 0 0 55.88c0,16.36 -14.29,29.62 -31.91,29.62l-9.27 0c-2.13,-2.81 -6.08,-4.71 -10.6,-4.71 -6.77,0 -12.26,4.24 -12.26,9.47 0,5.23 5.49,9.47 12.26,9.47 4.99,0 9.28,-2.3 11.2,-5.61l8.65 0c22.77,0 41.23,-17.13 41.23,-38.27l0 -55.87 1.3 0c6.46,0 11.7,-4.86 11.7,-10.86l0 -68.1c0,-3.94 -2.27,-7.38 -5.65,-9.29zm10.97 21.31c0,6.04 0,36.73 0,43.51 6.77,-4.27 9.92,-14.43 9.92,-21.12 0,-6.68 -2.17,-15.68 -9.92,-22.39zm-32.93 68.04l0 -92.27c0,-5.86 -5.12,-10.62 -11.43,-10.62 -6.32,0 -11.44,4.75 -11.44,10.62l0 92.27c0,5.87 5.12,10.62 11.44,10.62 6.32,0 11.43,-4.75 11.43,-10.62zm-235.3 -102.89c-6.32,0 -11.43,4.75 -11.43,10.62l0 92.27c0,5.87 5.12,10.62 11.43,10.62 6.32,0 11.44,-4.75 11.44,-10.62l0 -92.27c0,-5.86 -5.12,-10.62 -11.44,-10.62z"/>
   </g>
   <path class="fil3" d="M434.91 222.34c32.84,0 52.18,-17 52.18,-42.61 0,-24.82 -19.15,-33.42 -48.08,-39.87 -20.71,-4.69 -28.73,-7.82 -28.73,-17.59 0,-8.01 7.43,-14.46 19.74,-14.46 12.9,0 26.39,5.28 38.31,14.86l15.05 -20.72c-13.68,-11.73 -30.68,-18.57 -52.57,-18.57 -29.32,0 -49.64,17 -49.64,41.83 0,25.99 20.13,34.01 48.47,40.46 20.52,4.69 28.34,7.62 28.34,17.2 0,8.4 -7.43,15.05 -21.89,15.05 -17,0 -31.47,-6.64 -44.17,-17.59l-16.61 19.74c15.64,14.46 36.35,22.28 59.61,22.28zm139.16 -103.39l0 60.39 -0.2 -0.59c0,10.95 -9.18,19.54 -21.11,19.54 -11.34,0 -19.15,-8.6 -19.15,-21.11l0 -58.24 -27.56 0 0 64.3c0,22.87 15.64,39.09 37.52,39.09 13.1,0 24.43,-5.86 30.49,-15.05l0 12.7 28.54 0 0 -101.04 -28.54 0zm115.31 -2.35c-14.07,0 -25.8,6.06 -33.81,16.42l0 -14.07 -28.54 0 0 134.66 28.54 0 0 -47.89c8.01,10.56 19.74,16.61 33.81,16.61 26.97,0 46.51,-21.89 46.51,-52.97 0,-30.88 -19.54,-52.77 -46.51,-52.77zm-8.21 81.7c-13.88,0 -24.04,-10.16 -25.6,-25.02l0 -7.82c1.56,-14.66 11.72,-24.82 25.6,-24.82 15.83,0 26.97,11.92 26.97,28.73 0,17 -11.14,28.93 -26.97,28.93zm124.5 24.04c29.9,0 54.92,-24.24 54.92,-52.97 0,-28.73 -25.02,-52.77 -54.92,-52.77 -30.1,0 -55.31,24.04 -55.31,52.77 0,28.73 25.21,52.97 55.31,52.97zm0 -24.04c-15.24,0 -27.95,-13.29 -27.95,-28.93 0,-15.64 12.7,-28.73 27.95,-28.73 15.05,0 27.75,13.09 27.75,28.73 0,15.64 -12.7,28.93 -27.75,28.93zm102.8 -60.59l0 -18.76 -28.54 0 0 101.04 28.54 0 0 -48.27c0,-18.96 13.49,-31.07 34.59,-31.07l0 -24.04c-15.44,0 -27.95,8.01 -34.59,21.11zm104.17 57.26c-1.95,1.95 -5.86,3.32 -9.77,3.32 -5.28,0 -9.58,-4.69 -9.58,-11.34l0 -44.95 21.89 0 0 -23.06 -21.89 0 0 -27.76 -27.36 0 0 27.76 -13.88 0 0 23.06 13.88 0 0 49.45c0,18.18 12.51,30.88 30.29,30.88 8.21,0 17.39,-3.52 23.26,-8.79l-6.84 -18.57zm72.32 2.15c-11.92,0 -20.72,-7.43 -24.04,-18.37l72.9 0c0,-38.11 -18.57,-62.15 -50.23,-62.15 -29.51,0 -51.99,22.09 -51.99,52.58 0,31.08 23.45,53.16 53.55,53.16 14.85,0 32.25,-6.25 41.24,-15.64l-18.18 -18.57c-5.47,5.28 -15.24,8.99 -23.26,8.99zm-0.2 -55.31c11.53,0 18.96,6.45 21.69,16.42l-45.15 0c3.71,-10.16 12.7,-16.42 23.45,-16.42z"/>
   <g>
    <path class="fil4" d="M691.92 369.95l2.82 0c3.67,0 6.13,-1.8 6.13,-5.13 0,-3.31 -2.47,-5.13 -6.13,-5.13l-3.25 0 0 9.88c0,0.26 0.16,0.37 0.43,0.37zm-1.28 -10.25l-1.28 0 0 -0.66 5.52 0c4.1,0 6.88,2.12 6.88,5.79 0,3.69 -2.78,5.79 -6.88,5.79l-3.1 0c-0.81,0 -1.14,-0.28 -1.14,-0.96l0 -9.95z"/>
    <path class="fil4" d="M711.48 365.72c-0.1,-2.02 -1.54,-2.93 -3.17,-2.93 -1.82,0 -3.49,0.99 -3.85,2.93l7.02 0zm-3.16 -3.58c2.68,0 4.02,1.77 4.02,3.77 0,0.18 -0.04,0.45 -0.04,0.45l-7.91 0c0,2.39 1.93,3.77 4.22,3.77 1.89,0 3.06,-1.05 3.06,-1.05l0.45 0.58c0,0 -1.38,1.14 -3.51,1.14 -2.78,0 -5.09,-1.69 -5.09,-4.32 0.01,-2.79 2.27,-4.35 4.8,-4.35z"/>
    <path class="fil4" d="M714.59 368.88c0,0 1.02,1.26 3.06,1.26 1.27,0 2.42,-0.53 2.42,-1.56 0,-2.08 -5.68,-1.62 -5.68,-4.28 0,-1.42 1.42,-2.15 3.37,-2.15 0.85,0 2.78,0.32 2.78,1.41l0 0.63 -0.83 0 0 -0.4c0,-0.69 -1.22,-0.96 -1.91,-0.96 -1.6,0 -2.54,0.48 -2.54,1.42 0,2.12 5.68,1.6 5.68,4.33 0,1.32 -1.44,2.23 -3.32,2.23 -2.49,0 -3.63,-1.42 -3.63,-1.42l0.59 -0.52z"/>
    <path class="fil4" d="M730.62 365.72c-0.1,-2.02 -1.54,-2.93 -3.17,-2.93 -1.82,0 -3.49,0.99 -3.85,2.93l7.02 0zm-3.16 -3.58c2.68,0 4.02,1.77 4.02,3.77 0,0.18 -0.04,0.45 -0.04,0.45l-7.91 0c0,2.39 1.93,3.77 4.22,3.77 1.89,0 3.06,-1.05 3.06,-1.05l0.45 0.58c0,0 -1.38,1.14 -3.51,1.14 -2.78,0 -5.09,-1.69 -5.09,-4.32 0.01,-2.79 2.27,-4.35 4.8,-4.35z"/>
    <path class="fil4" d="M734.29 363.34c0,-0.25 -0.16,-0.37 -0.44,-0.37l-0.85 0 0 -0.63 0.97 0c0.81,0 1.15,0.28 1.15,0.91l0 0.46c0,0.38 -0.04,0.68 -0.04,0.68l0.04 0c0.34,-0.78 1.67,-2.25 4.14,-2.25 2.57,0 3.25,1.27 3.25,3.23l0 4.25c0,0.25 0.16,0.36 0.44,0.36l0.85 0 0 0.63 -0.97 0c-0.81,0 -1.14,-0.28 -1.14,-0.96l0 -4.04c0,-1.44 -0.22,-2.8 -2.43,-2.8 -1.85,0 -3.49,1.09 -3.98,2.63 -0.12,0.35 -0.16,0.73 -0.16,1.12l0 4.03 -0.83 0 0 -7.26 0.01 0z"/>
    <path class="fil4" d="M745.17 363.37c-0.14,-0.32 -0.37,-0.4 -0.75,-0.4l-0.16 0 0 -0.63 0.13 0c0.99,0 1.24,0.15 1.62,0.96l2.59 5.52c0.18,0.4 0.33,0.89 0.33,0.89l0.04 0c0,0 0.16,-0.5 0.34,-0.89l2.58 -5.52c0.37,-0.81 0.63,-0.96 1.62,-0.96l0.14 0 0 0.63 -0.16 0c-0.37,0 -0.61,0.09 -0.75,0.4l-3.39 7.24 -0.79 0 -3.38 -7.24z"/>
    <path class="fil4" d="M759.71 370.14c2.35,0 4.24,-1.61 4.24,-3.7 0,-2.05 -1.89,-3.6 -4.24,-3.6 -2.35,0 -4.24,1.56 -4.24,3.6 0,2.1 1.89,3.7 4.24,3.7zm0 -7.99c2.82,0 5.11,1.86 5.11,4.28 0,2.47 -2.29,4.38 -5.11,4.38 -2.82,0 -5.11,-1.91 -5.11,-4.38 0,-2.41 2.29,-4.28 5.11,-4.28z"/>
    <path class="fil4" d="M767.25 360.03c0,-0.25 -0.16,-0.36 -0.44,-0.36l-0.85 0 0 -0.63 0.97 0c0.81,0 1.14,0.28 1.14,0.96l0 9.62c0,0.25 0.16,0.36 0.44,0.36l0.85 0 0 0.63 -0.97 0c-0.81,0 -1.14,-0.28 -1.14,-0.96l0 -9.62z"/>
    <path class="fil4" d="M771.11 363.37c-0.14,-0.32 -0.37,-0.4 -0.75,-0.4l-0.16 0 0 -0.63 0.13 0c0.99,0 1.25,0.15 1.62,0.96l2.59 5.52c0.18,0.4 0.33,0.89 0.33,0.89l0.04 0c0,0 0.16,-0.5 0.34,-0.89l2.58 -5.52c0.37,-0.81 0.63,-0.96 1.62,-0.96l0.14 0 0 0.63 -0.16 0c-0.37,0 -0.61,0.09 -0.75,0.4l-3.39 7.24 -0.79 0 -3.38 -7.24z"/>
    <path class="fil4" d="M781.64 359.03l0.9 0 0 1.21 -0.9 0 0 -1.21zm0.11 4.3c0,-0.25 -0.16,-0.37 -0.43,-0.37l-0.85 0 0 -0.63 0.97 0c0.81,0 1.14,0.28 1.14,0.96l0 6.32c0,0.25 0.16,0.36 0.43,0.36l0.85 0 0 0.63 -0.97 0c-0.81,0 -1.14,-0.28 -1.14,-0.96l0 -6.31z"/>
    <path class="fil4" d="M786.17 363.34c0,-0.25 -0.16,-0.37 -0.44,-0.37l-0.85 0 0 -0.63 0.97 0c0.81,0 1.14,0.28 1.14,0.91l0 0.46c0,0.38 -0.04,0.68 -0.04,0.68l0.04 0c0.5,-1.24 2.21,-2.25 3.74,-2.25 1.97,0 2.9,0.78 3.12,2.25l0.04 0c0.55,-1.24 2.05,-2.25 3.74,-2.25 2.54,0 3.29,1.26 3.29,3.23l0 4.25c0,0.25 0.16,0.36 0.43,0.36l0.85 0 0 0.63 -0.97 0c-0.81,0 -1.14,-0.28 -1.14,-0.96l0 -4.04c0,-1.55 -0.37,-2.83 -2.47,-2.83 -1.64,0 -3.04,1.22 -3.47,2.52 -0.14,0.38 -0.2,0.79 -0.2,1.27l0 4.03 -0.83 0 0 -5c0,-1.42 -0.23,-2.83 -2.4,-2.83 -1.76,0 -3.14,1.29 -3.59,2.66 -0.12,0.35 -0.16,0.73 -0.16,1.12l0 4.03 -0.83 0 0 -7.27 0.01 0z"/>
    <path class="fil4" d="M811.46 365.72c-0.1,-2.02 -1.54,-2.93 -3.17,-2.93 -1.82,0 -3.49,0.99 -3.84,2.93l7.02 0zm-3.16 -3.58c2.68,0 4.02,1.77 4.02,3.77 0,0.18 -0.04,0.45 -0.04,0.45l-7.91 0c0,2.39 1.93,3.77 4.22,3.77 1.89,0 3.06,-1.05 3.06,-1.05l0.45 0.58c0,0 -1.38,1.14 -3.51,1.14 -2.78,0 -5.09,-1.69 -5.09,-4.32 0.01,-2.79 2.27,-4.35 4.8,-4.35z"/>
    <path class="fil4" d="M815.13 363.34c0,-0.25 -0.16,-0.37 -0.44,-0.37l-0.85 0 0 -0.63 0.97 0c0.81,0 1.14,0.28 1.14,0.91l0 0.46c0,0.38 -0.04,0.68 -0.04,0.68l0.04 0c0.34,-0.78 1.67,-2.25 4.14,-2.25 2.56,0 3.25,1.27 3.25,3.23l0 4.25c0,0.25 0.16,0.36 0.43,0.36l0.85 0 0 0.63 -0.97 0c-0.81,0 -1.14,-0.28 -1.14,-0.96l0 -4.04c0,-1.44 -0.22,-2.8 -2.42,-2.8 -1.85,0 -3.49,1.09 -3.98,2.63 -0.12,0.35 -0.16,0.73 -0.16,1.12l0 4.03 -0.83 0 0 -7.26 0.01 0z"/>
    <path class="fil4" d="M826.96 362.97l-1.3 0 0 -0.63 1.3 0 0 -2.3 0.83 0 0 2.3 2.58 0 0 0.63 -2.58 0 0 4.6c0,2.18 1.56,2.47 2.34,2.47 0.28,0 0.45,-0.04 0.45,-0.04l0 0.64c0,0 -0.2,0.03 -0.49,0.03 -1.02,0 -3.14,-0.32 -3.14,-3.06l0 -4.65 0.01 0z"/>
    <path class="fil4" d="M837.13 370.14c2.35,0 4.24,-1.61 4.24,-3.7 0,-2.05 -1.89,-3.6 -4.24,-3.6 -2.35,0 -4.24,1.56 -4.24,3.6 0,2.1 1.89,3.7 4.24,3.7zm0 -7.99c2.82,0 5.11,1.86 5.11,4.28 0,2.47 -2.29,4.38 -5.11,4.38 -2.82,0 -5.11,-1.91 -5.11,-4.38 0,-2.41 2.29,-4.28 5.11,-4.28z"/>
    <path class="fil4" d="M857.34 365.72c-0.1,-2.02 -1.54,-2.93 -3.17,-2.93 -1.82,0 -3.49,0.99 -3.84,2.93l7.02 0zm-3.16 -3.58c2.68,0 4.02,1.77 4.02,3.77 0,0.18 -0.04,0.45 -0.04,0.45l-7.9 0c0,2.39 1.93,3.77 4.22,3.77 1.89,0 3.06,-1.05 3.06,-1.05l0.45 0.58c0,0 -1.38,1.14 -3.51,1.14 -2.78,0 -5.09,-1.69 -5.09,-4.32 0,-2.79 2.27,-4.35 4.79,-4.35z"/>
    <path class="fil4" d="M872.22 358.84c2.04,0 5.13,0.73 5.13,2.38l0 0.83 -0.85 0 0 -0.66c0,-1.19 -2.49,-1.85 -4.26,-1.85 -3.33,0 -5.88,2.23 -5.88,5.21 0,3 2.52,5.38 5.94,5.38 2.96,0 4.68,-1.65 4.68,-1.65l0.53 0.51c0,0 -1.85,1.83 -5.21,1.83 -3.96,0 -6.83,-2.71 -6.83,-6.07 0,-3.35 2.93,-5.9 6.75,-5.9z"/>
    <path class="fil4" d="M884.2 370.14c2.35,0 4.24,-1.61 4.24,-3.7 0,-2.05 -1.89,-3.6 -4.24,-3.6 -2.35,0 -4.24,1.56 -4.24,3.6 0,2.1 1.89,3.7 4.24,3.7zm0 -7.99c2.82,0 5.11,1.86 5.11,4.28 0,2.47 -2.29,4.38 -5.11,4.38 -2.82,0 -5.11,-1.91 -5.11,-4.38 0,-2.41 2.29,-4.28 5.11,-4.28z"/>
    <path class="fil4" d="M891.93 363.34c0,-0.25 -0.16,-0.37 -0.44,-0.37l-0.85 0 0 -0.63 0.97 0c0.81,0 1.15,0.28 1.15,0.91l0 0.46c0,0.38 -0.04,0.68 -0.04,0.68l0.04 0c0.49,-1.24 2.21,-2.25 3.74,-2.25 1.97,0 2.9,0.78 3.12,2.25l0.04 0c0.55,-1.24 2.05,-2.25 3.74,-2.25 2.54,0 3.29,1.26 3.29,3.23l0 4.25c0,0.25 0.16,0.36 0.43,0.36l0.85 0 0 0.63 -0.97 0c-0.81,0 -1.14,-0.28 -1.14,-0.96l0 -4.04c0,-1.55 -0.37,-2.83 -2.47,-2.83 -1.64,0 -3.04,1.22 -3.47,2.52 -0.14,0.38 -0.2,0.79 -0.2,1.27l0 4.03 -0.83 0 0 -5c0,-1.42 -0.23,-2.83 -2.4,-2.83 -1.76,0 -3.14,1.29 -3.59,2.66 -0.12,0.35 -0.16,0.73 -0.16,1.12l0 4.03 -0.83 0 0 -7.27 0.01 0z"/>
    <path class="fil4" d="M917.23 365.72c-0.1,-2.02 -1.54,-2.93 -3.17,-2.93 -1.81,0 -3.49,0.99 -3.84,2.93l7.02 0zm-3.16 -3.58c2.68,0 4.02,1.77 4.02,3.77 0,0.18 -0.04,0.45 -0.04,0.45l-7.91 0c0,2.39 1.93,3.77 4.22,3.77 1.89,0 3.06,-1.05 3.06,-1.05l0.45 0.58c0,0 -1.38,1.14 -3.51,1.14 -2.78,0 -5.09,-1.69 -5.09,-4.32 0.01,-2.79 2.27,-4.35 4.8,-4.35z"/>
    <path class="fil4" d="M920.89 363.34c0,-0.25 -0.16,-0.37 -0.44,-0.37l-0.85 0 0 -0.63 0.97 0c0.81,0 1.14,0.28 1.14,0.91l0 0.58c0,0.38 -0.04,0.68 -0.04,0.68l0.04 0c0.49,-1.27 1.56,-2.23 3.12,-2.23 0.3,0 0.57,0.05 0.57,0.05l0 0.69c0,0 -0.23,-0.04 -0.45,-0.04 -1.53,0 -2.5,1.09 -2.94,2.32 -0.22,0.58 -0.3,1.19 -0.3,1.74l0 3.58 -0.83 0 0 -7.28z"/>
    <path class="fil4" d="M931.38 362.14c1.07,0 3.47,0.38 3.47,1.72l0 0.63 -0.83 0 0 -0.48c0,-0.81 -1.7,-1.19 -2.64,-1.19 -2.3,0 -4.22,1.44 -4.22,3.67 0,2.2 1.91,3.64 4.22,3.64 2.17,0 3.29,-1.19 3.29,-1.19l0.44 0.58c0,0 -1.28,1.29 -3.73,1.29 -2.78,0 -5.09,-1.69 -5.09,-4.32 0,-2.61 2.35,-4.34 5.09,-4.34z"/>
    <path class="fil4" d="M937.51 359.03l0.91 0 0 1.21 -0.91 0 0 -1.21zm0.11 4.3c0,-0.25 -0.16,-0.37 -0.43,-0.37l-0.85 0 0 -0.63 0.97 0c0.81,0 1.14,0.28 1.14,0.96l0 6.32c0,0.25 0.16,0.36 0.43,0.36l0.85 0 0 0.63 -0.97 0c-0.81,0 -1.14,-0.28 -1.14,-0.96l0 -6.31z"/>
    <path class="fil4" d="M944.53 370.17c2.15,0 3.37,-1.87 3.37,-3.51l0 -0.45 -0.63 0c-1.68,0 -5.26,0 -5.26,2.15 0,0.87 0.85,1.8 2.52,1.8zm2.72 -4.6l0.65 0 0 -0.11c0,-1.97 -0.81,-2.66 -2.86,-2.66 -0.51,0 -2.19,0.11 -2.19,0.81l0 0.56 -0.83 0 0 -0.76c0,-0.97 2.23,-1.26 3.04,-1.26 3.02,0 3.67,1.37 3.67,3.12l0 4.35c0,0.25 0.16,0.36 0.44,0.36l0.85 0 0 0.63 -0.97 0c-0.81,0 -1.14,-0.26 -1.14,-1.01 0,-0.45 0.04,-0.75 0.04,-0.75l-0.04 0c0.02,0 -0.85,1.95 -3.41,1.95 -1.6,0 -3.35,-0.74 -3.35,-2.4 0,-2.81 4.35,-2.84 6.11,-2.84z"/>
    <path class="fil4" d="M952.19 360.03c0,-0.25 -0.16,-0.36 -0.44,-0.36l-0.85 0 0 -0.63 0.97 0c0.81,0 1.15,0.28 1.15,0.96l0 9.62c0,0.25 0.16,0.36 0.44,0.36l0.85 0 0 0.63 -0.97 0c-0.81,0 -1.14,-0.28 -1.14,-0.96l0 -9.62z"/>
    <path class="fil4" d="M956.61 359.03l0.91 0 0 1.21 -0.91 0 0 -1.21zm0.12 4.3c0,-0.25 -0.16,-0.37 -0.43,-0.37l-0.85 0 0 -0.63 0.97 0c0.81,0 1.15,0.28 1.15,0.96l0 6.32c0,0.25 0.15,0.36 0.43,0.36l0.85 0 0 0.63 -0.97 0c-0.81,0 -1.14,-0.28 -1.14,-0.96l0 -6.31z"/>
    <path class="fil4" d="M960.28 370.05l5.98 -6.3c0.35,-0.38 0.77,-0.76 0.77,-0.76l0 -0.04c0,0 -0.35,0.04 -1,0.04l-4.44 0c-0.28,0 -0.43,0.12 -0.43,0.37l0 0.71 -0.81 0 0 -0.76c0,-0.68 0.33,-0.96 1.14,-0.96l6.66 0 0 0.56 -6 6.3c-0.35,0.38 -0.79,0.76 -0.79,0.76l0 0.04c0,0 0.37,-0.04 1.02,-0.04l4.93 0c0.28,0 0.43,-0.11 0.43,-0.36l0 -0.71 0.81 0 0 0.76c0,0.68 -0.33,0.96 -1.14,0.96l-7.14 0 0 -0.57z"/>
    <path class="fil4" d="M973.35 370.17c2.15,0 3.37,-1.87 3.37,-3.51l0 -0.45 -0.63 0c-1.67,0 -5.26,0 -5.26,2.15 0,0.87 0.85,1.8 2.52,1.8zm2.72 -4.6l0.65 0 0 -0.11c0,-1.97 -0.81,-2.66 -2.86,-2.66 -0.51,0 -2.19,0.11 -2.19,0.81l0 0.56 -0.83 0 0 -0.76c0,-0.97 2.23,-1.26 3.04,-1.26 3.02,0 3.67,1.37 3.67,3.12l0 4.35c0,0.25 0.16,0.36 0.44,0.36l0.85 0 0 0.63 -0.97 0c-0.81,0 -1.14,-0.26 -1.14,-1.01 0,-0.45 0.04,-0.75 0.04,-0.75l-0.04 0c0.02,0 -0.85,1.95 -3.41,1.95 -1.6,0 -3.35,-0.74 -3.35,-2.4 0,-2.81 4.36,-2.84 6.11,-2.84z"/>
    <path class="fil4" d="M985.22 362.14c1.07,0 3.47,0.38 3.47,1.72l0 0.63 -0.83 0 0 -0.48c0,-0.81 -1.7,-1.19 -2.64,-1.19 -2.3,0 -4.22,1.44 -4.22,3.67 0,2.2 1.91,3.64 4.22,3.64 2.17,0 3.29,-1.19 3.29,-1.19l0.44 0.58c0,0 -1.28,1.29 -3.81,1.29l-0.18 0.79c0.81,0.1 1.36,0.53 1.36,1.12 0,0.91 -0.87,1.26 -1.79,1.26 -0.54,0 -0.87,-0.07 -0.87,-0.07l0 -0.63c0,0 0.35,0.08 0.81,0.08 0.53,0 1.07,-0.13 1.07,-0.61 0,-0.38 -0.43,-0.63 -1.2,-0.63 -0.12,0 -0.24,0.01 -0.24,0.01l0.35 -1.39c-2.42,-0.26 -4.32,-1.88 -4.32,-4.27 -0.01,-2.61 2.35,-4.33 5.09,-4.33z"/>
    <path class="fil4" d="M993.36 359.04c1.32,0 1.56,1.22 2.49,1.22 0.69,0 0.79,-0.79 0.79,-1.17l0.79 0c0,1.17 -0.55,1.79 -1.64,1.79 -1.32,0 -1.55,-1.22 -2.49,-1.22 -0.69,0 -0.79,0.79 -0.79,1.17l-0.79 0c0,-1.17 0.55,-1.79 1.64,-1.79zm0.47 11.14c2.15,0 3.37,-1.87 3.37,-3.51l0 -0.44 -0.63 0c-1.67,0 -5.26,0 -5.26,2.15 -0.01,0.87 0.85,1.8 2.52,1.8zm2.72 -4.6l0.65 0 0 -0.11c0,-1.97 -0.81,-2.66 -2.86,-2.66 -0.51,0 -2.19,0.11 -2.19,0.81l0 0.57 -0.83 0 0 -0.76c0,-0.98 2.22,-1.26 3.04,-1.26 3.02,0 3.67,1.37 3.67,3.12l0 4.35c0,0.25 0.16,0.36 0.44,0.36l0.85 0 0 0.63 -0.97 0c-0.81,0 -1.14,-0.26 -1.14,-1.01 0,-0.45 0.04,-0.75 0.04,-0.75l-0.04 0c0.02,0 -0.85,1.95 -3.41,1.95 -1.6,0 -3.35,-0.74 -3.35,-2.4 0,-2.81 4.35,-2.84 6.11,-2.84z"/>
    <path class="fil4" d="M1005.71 370.14c2.35,0 4.24,-1.61 4.24,-3.7 0,-2.05 -1.89,-3.6 -4.24,-3.6 -2.35,0 -4.24,1.56 -4.24,3.6 0,2.1 1.89,3.7 4.24,3.7zm0 -7.99c2.82,0 5.11,1.86 5.11,4.28 0,2.47 -2.29,4.38 -5.11,4.38 -2.82,0 -5.11,-1.91 -5.11,-4.38 0,-2.41 2.29,-4.28 5.11,-4.28z"/>
    <path class="fil4" d="M1025.82 366.46c0,-1.84 -1.12,-3.65 -3.43,-3.65 -1.93,0 -3.51,1.36 -3.51,3.67 0,2.23 1.42,3.65 3.43,3.65 1.82,0 3.51,-1.07 3.51,-3.67zm-3.39 -4.32c2.49,0 3.37,1.79 3.37,1.79l0.04 0c0,0 -0.04,-0.3 -0.04,-0.68l0 -3.23c0,-0.25 -0.16,-0.36 -0.44,-0.36l-0.85 0 0 -0.63 0.97 0c0.81,0 1.14,0.28 1.14,0.96l0 9.62c0,0.25 0.16,0.36 0.44,0.36l0.85 0 0 0.63 -0.97 0c-0.81,0 -1.14,-0.28 -1.14,-0.96 0,-0.38 0.04,-0.63 0.04,-0.63l-0.04 0c0,0 -0.81,1.79 -3.53,1.79 -2.64,0 -4.26,-1.77 -4.26,-4.33 0.01,-2.62 1.84,-4.33 4.42,-4.33z"/>
    <path class="fil4" d="M1037.22 365.72c-0.1,-2.02 -1.54,-2.93 -3.17,-2.93 -1.82,0 -3.49,0.99 -3.85,2.93l7.02 0zm-3.16 -3.58c2.68,0 4.02,1.77 4.02,3.77 0,0.18 -0.04,0.45 -0.04,0.45l-7.91 0c0,2.39 1.93,3.77 4.22,3.77 1.89,0 3.06,-1.05 3.06,-1.05l0.45 0.58c0,0 -1.38,1.14 -3.51,1.14 -2.78,0 -5.09,-1.69 -5.09,-4.32 0.01,-2.79 2.27,-4.35 4.8,-4.35z"/>
    <path class="fil4" d="M1045.89 368.69c0,0 1.4,1.42 3.69,1.42 1.72,0 3.07,-0.97 3.07,-2.37 0,-3.24 -6.96,-2.48 -6.96,-6.08 0,-1.49 1.54,-2.83 4.04,-2.83 1.2,0 3.57,0.41 3.57,1.85l0 0.73 -0.85 0 0 -0.57c0,-0.76 -1.27,-1.32 -2.7,-1.32 -2.05,0 -3.17,1.02 -3.17,2.12 0,3.01 6.96,2.23 6.96,6.07 0,1.68 -1.54,3.1 -4,3.1 -2.72,0 -4.22,-1.57 -4.22,-1.57l0.56 -0.55z"/>
    <path class="fil4" d="M1060.56 370.14c2.35,0 4.24,-1.61 4.24,-3.7 0,-2.05 -1.89,-3.6 -4.24,-3.6 -2.35,0 -4.24,1.56 -4.24,3.6 0,2.1 1.89,3.7 4.24,3.7zm0 -7.99c2.82,0 5.11,1.86 5.11,4.28 0,2.47 -2.29,4.38 -5.11,4.38 -2.82,0 -5.11,-1.91 -5.11,-4.38 0,-2.41 2.29,-4.28 5.11,-4.28z"/>
    <path class="fil4" d="M1068.3 362.97l-1.24 0 0 -0.63 1.24 0 0 -0.33c0,-2.73 2.13,-3.06 3.12,-3.06 0.32,0 0.51,0.04 0.51,0.04l0 0.64c0,0 -0.18,-0.04 -0.45,-0.04 -0.79,0 -2.35,0.26 -2.35,2.4l0 0.35 2.7 0 0 0.63 -2.7 0 0 7.64 -0.83 0 0 -7.63z"/>
    <path class="fil4" d="M1074.08 362.97l-1.3 0 0 -0.63 1.3 0 0 -2.3 0.83 0 0 2.3 2.58 0 0 0.63 -2.58 0 0 4.6c0,2.18 1.56,2.47 2.35,2.47 0.27,0 0.45,-0.04 0.45,-0.04l0 0.64c0,0 -0.2,0.03 -0.49,0.03 -1.03,0 -3.14,-0.32 -3.14,-3.06l0 -4.65 0.01 0z"/>
    <path class="fil4" d="M1079.5 363.37c-0.14,-0.32 -0.37,-0.4 -0.75,-0.4l-0.25 0 0 -0.63 0.23 0c0.99,0 1.28,0.13 1.62,0.96l2.29 5.52c0.16,0.4 0.33,0.89 0.33,0.89l0.04 0c0,0 0.18,-0.5 0.33,-0.89l2.7 -6.45 0.93 0 2.7 6.45c0.16,0.4 0.33,0.89 0.33,0.89l0.04 0c0,0 0.15,-0.48 0.33,-0.89l2.29 -5.52c0.33,-0.83 0.63,-0.96 1.62,-0.96l0.23 0 0 0.63 -0.25 0c-0.37,0 -0.61,0.09 -0.75,0.4l-3.04 7.24 -0.89 0 -2.74 -6.42c-0.18,-0.4 -0.33,-0.89 -0.33,-0.89l-0.04 0c0,0 -0.16,0.49 -0.33,0.89l-2.72 6.42 -0.89 0 -3.02 -7.24z"/>
    <path class="fil4" d="M1098.86 370.17c2.15,0 3.37,-1.87 3.37,-3.51l0 -0.45 -0.63 0c-1.67,0 -5.26,0 -5.26,2.15 0,0.87 0.85,1.8 2.52,1.8zm2.72 -4.6l0.65 0 0 -0.11c0,-1.97 -0.81,-2.66 -2.86,-2.66 -0.51,0 -2.19,0.11 -2.19,0.81l0 0.56 -0.83 0 0 -0.76c0,-0.97 2.23,-1.26 3.04,-1.26 3.02,0 3.67,1.37 3.67,3.12l0 4.35c0,0.25 0.16,0.36 0.44,0.36l0.85 0 0 0.63 -0.97 0c-0.81,0 -1.14,-0.26 -1.14,-1.01 0,-0.45 0.04,-0.75 0.04,-0.75l-0.04 0c0.02,0 -0.85,1.95 -3.41,1.95 -1.6,0 -3.35,-0.74 -3.35,-2.4 0,-2.81 4.36,-2.84 6.11,-2.84z"/>
    <path class="fil4" d="M1106.53 363.34c0,-0.25 -0.16,-0.37 -0.44,-0.37l-0.85 0 0 -0.63 0.97 0c0.81,0 1.14,0.28 1.14,0.91l0 0.58c0,0.38 -0.04,0.68 -0.04,0.68l0.04 0c0.5,-1.27 1.56,-2.23 3.12,-2.23 0.3,0 0.57,0.05 0.57,0.05l0 0.69c0,0 -0.23,-0.04 -0.45,-0.04 -1.53,0 -2.5,1.09 -2.94,2.32 -0.22,0.58 -0.3,1.19 -0.3,1.74l0 3.58 -0.83 0 0 -7.28z"/>
    <path class="fil4" d="M1119.87 365.72c-0.1,-2.02 -1.54,-2.93 -3.17,-2.93 -1.82,0 -3.49,0.99 -3.84,2.93l7.02 0zm-3.15 -3.58c2.68,0 4.02,1.77 4.02,3.77 0,0.18 -0.04,0.45 -0.04,0.45l-7.91 0c0,2.39 1.93,3.77 4.22,3.77 1.89,0 3.06,-1.05 3.06,-1.05l0.45 0.58c0,0 -1.38,1.14 -3.51,1.14 -2.78,0 -5.09,-1.69 -5.09,-4.32 0.01,-2.79 2.27,-4.35 4.8,-4.35z"/>
    <path class="fil4" d="M1122.99 368.88c0,0 1.02,1.26 3.06,1.26 1.27,0 2.42,-0.53 2.42,-1.56 0,-2.08 -5.68,-1.62 -5.68,-4.28 0,-1.42 1.42,-2.15 3.37,-2.15 0.85,0 2.78,0.32 2.78,1.41l0 0.63 -0.83 0 0 -0.4c0,-0.69 -1.22,-0.96 -1.91,-0.96 -1.6,0 -2.54,0.48 -2.54,1.42 0,2.12 5.68,1.6 5.68,4.33 0,1.32 -1.44,2.23 -3.31,2.23 -2.49,0 -3.63,-1.42 -3.63,-1.42l0.59 -0.52z"/>
    <path class="fil4" d="M689.39 332.73l81.29 0 0 17.69 -81.29 0 0 -17.69zm23.22 -5.89l-23.22 0 0 -58.96 23.22 0 0 58.96z"/>
    <path class="fil4" d="M804.19 350.42l-23.22 0 0 -58.96 23.22 0 0 58.96zm34.83 -64.86l-58.06 0 -11.62 -17.69 69.67 0c19.35,0 29.03,7.86 29.03,23.58l0 5.9c0,6.09 -1.45,11.01 -4.35,14.74 2.9,3.74 4.35,8.65 4.35,14.74 0,15.73 -9.68,23.58 -29.03,23.58l-29.02 0 0 -17.69 29.03 0c3.87,0 5.81,-1.96 5.81,-5.9 0,-3.93 -1.94,-5.89 -5.81,-5.89l-29.03 0 0 -17.69 29.03 0c3.87,0 5.81,-1.97 5.81,-5.9l0 -5.9c0,-3.91 -1.94,-5.88 -5.81,-5.88z"/>
    <path class="fil4" d="M902.89 350.42l-23.22 0 0 -58.96 23.22 0 0 58.96zm34.84 -64.86l-58.06 0 -11.62 -17.69 69.67 0c19.35,0 29.03,7.86 29.03,23.58l0 5.9c0,12.62 -6.23,20.16 -18.7,22.65l18.7 30.42 -29.03 0 -29.03 -47.17 29.03 0c3.87,0 5.81,-1.96 5.81,-5.9l0 -5.9c0,-3.92 -1.94,-5.89 -5.81,-5.89z"/>
    <polygon class="fil4" points="978.37,332.73 1001.6,332.73 1001.6,350.42 978.37,350.42 "/>
    <polygon class="fil4" points="1013.21,267.87 1036.44,267.87 1036.44,350.42 1013.21,350.42 "/>
    <path class="fil4" d="M1077.07 291.46l23.22 0 0 58.96 -23.22 0 0 -58.96zm52.26 -5.9l-81.29 0 -11.62 -17.69 92.9 0 0 17.69z"/>
   </g>
  </g>
 </g>
</svg>
