<?xml version="1.0" encoding="UTF-8"?>
<!DOCTYPE svg PUBLIC "-//W3C//DTD SVG 1.1//EN" "http://www.w3.org/Graphics/SVG/1.1/DTD/svg11.dtd">
<!-- Creator: CorelDRAW -->
<svg xmlns="http://www.w3.org/2000/svg" xml:space="preserve" width="67.7333mm" height="32.4716mm" version="1.1" style="shape-rendering:geometricPrecision; text-rendering:geometricPrecision; image-rendering:optimizeQuality; fill-rule:evenodd; clip-rule:evenodd"
viewBox="0 0 3535.3 1694.84"
 xmlns:xlink="http://www.w3.org/1999/xlink"
 xmlns:xodm="http://www.corel.com/coreldraw/odm/2003">
 <defs>
  <style type="text/css">
   <![CDATA[
    .str0 {stroke:#E6E6E6;stroke-width:26.1;stroke-miterlimit:22.9256}
    .fil0 {fill:none}
    .fil2 {fill:#E6E6E6}
    .fil1 {fill:#E6E6E6;fill-rule:nonzero}
   ]]>
  </style>
 </defs>
 <g id="Camada_x0020_1">
  <metadata id="CorelCorpID_0Corel-Layer"/>
  <g id="_2392449885136">
   <path class="fil0 str0" d="M2336.03 343.52l149.2 0 0 145.81 -149.2 0 0 -145.81zm-329.99 -125.5l177.06 0 0 173.04 -177.06 0 0 -173.04zm-420.8 -181.26l270.47 0 0 264.33 -270.47 0 0 -264.33z"/>
   <g>
    <path class="fil1" d="M312.54 1218.43l595.47 0 0 129.6 -595.47 0 0 -129.6zm170.13 -43.16l-170.13 0 0 -431.91 170.13 0 0 431.91z"/>
    <path class="fil1" d="M1153.44 1348.03l-170.12 0 0 -431.91 170.12 0 0 431.91zm255.16 -475.13l-425.34 0 -85.09 -129.6 510.37 0c141.77,0 212.67,57.6 212.67,172.76l0 43.22c0,44.62 -10.61,80.64 -31.88,107.96 21.27,27.39 31.88,63.35 31.88,107.97 0,115.21 -70.9,172.77 -212.67,172.77l-212.62 0 0 -129.6 212.67 0c28.37,0 42.55,-14.4 42.55,-43.22 0,-28.77 -14.18,-43.16 -42.55,-43.16l-212.67 0 0 -129.59 212.67 0c28.37,0 42.55,-14.4 42.55,-43.22l0 -43.22c0,-28.62 -14.18,-43.06 -42.55,-43.06z"/>
    <path class="fil1" d="M1876.49 1348.03l-170.12 0 0 -431.91 170.12 0 0 431.91zm255.22 -475.13l-425.34 0 -85.09 -129.6 510.37 0c141.76,0 212.67,57.6 212.67,172.76l0 43.22c0,92.44 -45.65,147.71 -136.95,165.88l136.95 222.87 -212.62 0 -212.67 -345.53 212.67 0c28.37,0 42.54,-14.38 42.54,-43.21l0 -43.22c0,-28.72 -14.18,-43.16 -42.54,-43.16z"/>
    <polygon class="fil1" points="2429.41,1218.43 2599.53,1218.43 2599.53,1348.03 2429.41,1348.03 "/>
    <polygon class="fil1" points="2684.62,743.3 2854.75,743.3 2854.75,1347.98 2684.62,1347.98 "/>
    <path class="fil1" d="M3152.45 916.12l170.13 0 0 431.91 -170.13 0 0 -431.91zm382.85 -43.22l-595.47 0 -85.09 -129.6 680.56 0 0 129.6z"/>
   </g>
   <path class="fil1" d="M1210.37 1694.84c26.35,0 50.68,-11.4 67.65,-29.14l-27.12 -24.32c-10.13,11.66 -24.58,19.51 -40.54,19.51 -29.15,0 -53.97,-25.85 -53.97,-56.26 0,-30.15 24.83,-56 53.97,-56 15.96,0 30.41,7.86 40.54,19.51l27.12 -24.32c-16.98,-17.99 -41.3,-29.14 -67.65,-29.14 -49.92,0 -92.49,41.05 -92.49,89.95 0,48.91 42.58,90.21 92.49,90.21zm126.95 -36.74l0 -140.38 -37.5 0 0 174.08 124.16 0 0 -33.7 -86.66 0zm196.39 36.74c50.43,0 92.48,-41.3 92.48,-90.21 0,-48.91 -42.06,-89.95 -92.48,-89.95 -49.92,0 -92.49,41.05 -92.49,89.95 0,48.91 42.57,90.21 92.49,90.21zm0 -33.95c-29.15,0 -53.97,-25.85 -53.97,-56.26 0,-30.15 24.83,-56 53.97,-56 29.39,0 54.22,25.85 54.22,56 0,30.41 -24.83,56.26 -54.22,56.26zm198.66 33.95c46.12,0 78.8,-32.43 78.8,-78.3l0 -98.83 -37.5 0 0 97.31c0,26.85 -17.23,45.86 -41.3,45.86 -24.33,0 -41.56,-19.01 -41.56,-45.86l0 -97.31 -37.25 0 0 98.83c0,45.87 32.43,78.3 78.81,78.3zm114.28 -3.04l62.34 0c58.54,0 100.09,-36.24 100.09,-87.17 0,-50.93 -41.56,-86.91 -100.09,-86.91l-62.34 0 0 174.08zm37.25 -33.96l0 -106.17 29.9 0c33.2,0 56.76,22.04 56.76,52.96 0,31.17 -23.57,53.21 -56.76,53.21l-29.9 0z"/>
   <path class="fil0" d="M406.98 1593.51l-12.76 21.99 7.14 -6.46 51.35 -67.05c-2.18,-0.4 -4.36,-0.81 -6.53,-1.23"/>
   <path class="fil2" d="M313.32 1527.11c-261.9,-115.96 -398.97,-441.33 -255.13,-715.57 86.58,-165.08 269.54,-295.67 483.59,-295.67 0,-206.44 138.33,-377.67 314.71,-461.77 183.65,-87.56 405.34,-66.11 570.19,44.56 15.16,8.05 25.22,22.17 25.22,38.22 0,25.04 -26.96,57.05 -54.6,45.34 -44.39,-18.8 -152.03,-90.88 -291.42,-90.88 -110.15,0 -236.72,43.31 -312.35,110.94l-29 27.18c-21.93,22.93 -36.49,36.4 -54.79,62.86 -53.02,76.64 -63,138.86 -71.88,222.19 -2.97,27.87 1.8,16.58 1.8,45.16 0,54.92 -74,47.76 -115.02,49.14 -109.58,3.68 -211.76,50.63 -286.53,121.97 -121.04,115.49 -169.24,256.91 -131.5,418.01 8,34.16 18.94,59.36 31.43,85.08 50.39,103.7 131.49,173.93 240.55,220.21 34.06,14.43 90.36,3.94 90.36,59.27 0,27.36 -21.66,49.54 -48.37,49.54 -21.08,0 -86.52,-26.6 -107.25,-35.78z"/>
   <path class="fil0" d="M471.94 1545.14c-6.5,-0.94 -12.91,-2 -19.23,-3.14l-51.35 67.05"/>
  </g>
 </g>
</svg>
