<?xml version="1.0" encoding="UTF-8" standalone="no"?>
<!-- Generator: Adobe Illustrator 27.0.0, SVG Export Plug-In . SVG Version: 6.00 Build 0)  -->

<svg
   version="1.1"
   id="Layer_1"
   x="0px"
   y="0px"
   viewBox="0 0 1190.55 841.89"
   style="enable-background:new 0 0 1190.55 841.89;"
   xml:space="preserve"
   sodipodi:docname="LogoLbrIt-Branco.svg"
   inkscape:version="1.3.2 (091e20e, 2023-11-25, custom)"
   xmlns:inkscape="http://www.inkscape.org/namespaces/inkscape"
   xmlns:sodipodi="http://sodipodi.sourceforge.net/DTD/sodipodi-0.dtd"
   xmlns="http://www.w3.org/2000/svg"
   xmlns:svg="http://www.w3.org/2000/svg"><defs
   id="defs82" /><sodipodi:namedview
   id="namedview82"
   pagecolor="#ffffff"
   bordercolor="#000000"
   borderopacity="0"
   inkscape:showpageshadow="2"
   inkscape:pageopacity="0.0"
   inkscape:pagecheckerboard="0"
   inkscape:deskcolor="#d1d1d1"
   inkscape:zoom="0.48284217"
   inkscape:cx="184.32524"
   inkscape:cy="454.5999"
   inkscape:window-width="2560"
   inkscape:window-height="1009"
   inkscape:window-x="1912"
   inkscape:window-y="-8"
   inkscape:window-maximized="1"
   inkscape:current-layer="logo_00000116215951356960829160000003235889464886424763_"
   showborder="true"
   borderlayer="true" />
<style
   type="text/css"
   id="style1">
	.st0{fill:#1D1D1B;}
	.st1{fill:none;}
	.st2{opacity:0.85;clip-path:url(#SVGID_00000145743798215424069110000002895856072044189081_);}
</style>
<g
   id="logo_00000116215951356960829160000003235889464886424763_">
	<g
   id="nome"
   transform="translate(-4)">
		
		<g
   id="letra"
   style="fill:#ffffff"
   transform="matrix(1.8847458,0,0,1.8847458,-1006.5226,-386.28025)">
			<path
   class="st0"
   d="m 573.59,438.13 h -32.87 v -83.45 h 32.87 z m -32.87,8.34 h 115.05 v 25.04 H 540.72 Z"
   id="path43"
   style="fill:#ffffff" />
			<path
   class="st0"
   d="m 752.49,379.71 h -82.18 l -16.44,-25.04 h 98.61 c 27.39,0 41.09,11.13 41.09,33.38 v 8.35 c 0,8.62 -2.05,15.58 -6.16,20.86 4.11,5.29 6.16,12.24 6.16,20.86 0,22.26 -13.7,33.38 -41.09,33.38 H 711.4 v -25.04 h 41.09 c 5.48,0 8.22,-2.78 8.22,-8.35 0,-5.56 -2.74,-8.34 -8.22,-8.34 H 711.4 v -25.04 h 41.09 c 5.48,0 8.22,-2.78 8.22,-8.35 v -8.35 c 0,-5.53 -2.74,-8.32 -8.22,-8.32 z m -49.3,91.8 h -32.87 v -83.45 h 32.87 z"
   id="path44"
   style="fill:#ffffff" />
			<path
   class="st0"
   d="m 892.2,379.71 h -82.18 l -16.44,-25.04 h 98.61 c 27.39,0 41.09,11.13 41.09,33.38 v 8.35 c 0,17.86 -8.82,28.54 -26.46,32.05 l 26.46,43.06 H 892.2 l -41.09,-66.76 h 41.09 c 5.48,0 8.22,-2.78 8.22,-8.35 v -8.35 c 0,-5.55 -2.74,-8.34 -8.22,-8.34 z m -49.31,91.8 h -32.87 v -83.45 h 32.87 z"
   id="path45"
   style="fill:#ffffff" />
			<path
   class="st0"
   d="m 949.72,446.47 h 32.87 v 25.04 h -32.87 z"
   id="path46"
   style="fill:#ffffff" />
			<path
   class="st0"
   d="m 999.03,354.67 h 32.87 V 471.5 h -32.87 z"
   id="path47"
   style="fill:#ffffff" />
			<path
   class="st0"
   d="m 1163.39,379.71 h -115.05 l -16.44,-25.04 h 131.49 z m -73.97,8.35 h 32.87 v 83.45 h -32.87 z"
   id="path48"
   style="fill:#ffffff" />
		</g>
	</g>
	
	
	
	
	
	
	
	
	
</g>
</svg>
