<?xml version="1.0" encoding="UTF-8"?>
<!DOCTYPE svg PUBLIC "-//W3C//DTD SVG 1.1//EN" "http://www.w3.org/Graphics/SVG/1.1/DTD/svg11.dtd">
<!-- Creator: CorelDRAW -->
<svg xmlns="http://www.w3.org/2000/svg" xml:space="preserve" width="67.7332mm" height="19.1715mm" version="1.1" style="shape-rendering:geometricPrecision; text-rendering:geometricPrecision; image-rendering:optimizeQuality; fill-rule:evenodd; clip-rule:evenodd"
viewBox="0 0 1722.97 487.68"
 xmlns:xlink="http://www.w3.org/1999/xlink"
 xmlns:xodm="http://www.corel.com/coreldraw/odm/2003">
 <defs>
  <style type="text/css">
   <![CDATA[
    .fil0 {fill:#4A7CF6;fill-rule:nonzero}
    .fil2 {fill:#7C67F7;fill-rule:nonzero}
    .fil3 {fill:white;fill-rule:nonzero}
    .fil1 {fill:url(#id0);fill-rule:nonzero}
   ]]>
  </style>
  <linearGradient id="id0" gradientUnits="userSpaceOnUse" x1="0" y1="207.98" x2="308.11" y2="207.98">
   <stop offset="0" style="stop-opacity:1; stop-color:#7C67F7"/>
   <stop offset="1" style="stop-opacity:1; stop-color:#9660F2"/>
  </linearGradient>
 </defs>
 <g id="Camada_x0020_1">
  <metadata id="CorelCorpID_0Corel-Layer"/>
  <g id="_2393790198176">
   <g>
    <polygon class="fil0" points="487.67,55.71 487.67,487.68 145.9,487.68 145.9,415.96 181,415.96 179.95,236.06 378.81,415.96 378.81,55.71 "/>
    <polygon class="fil1" points="308.11,254.91 108.86,71.71 108.86,415.96 -0,415.96 -0,0 307.13,0 "/>
    <polygon class="fil2" points="307.1,487.68 145.9,487.68 145.9,415.96 181,415.96 179.95,236.06 378.81,415.96 "/>
    <polygon class="fil0" points="108.86,415.96 -0,415.96 -0,180.57 108.86,71.71 "/>
   </g>
   <path class="fil3" d="M659.46 336.6c86.86,2.71 137.89,-33.11 137.89,-95.55 0,-45.06 -44.52,-76.55 -107.49,-76.55 -95.55,0 -173.18,77.63 -173.18,174.27 0,71.12 48.86,119.43 126.49,119.43 42.89,0 90.66,-15.2 120.52,-41.26l-46.69 -59.72c-21.17,15.74 -47.77,26.6 -73.83,26.6 -29.31,0 -45.6,-15.75 -45.6,-46.15l0 -1.09 61.89 0zm27.14 -98.26c17.37,0 29.86,7.6 29.86,17.92 0,15.2 -17.37,24.43 -46.15,24.43l-56.46 0c15.74,-24.97 41.8,-42.35 72.75,-42.35zm451.14 -67.32l-97.72 0 -62.97 68.4 -33.66 -68.4 -96.09 0 67.86 136.27 -133.01 144.41 98.26 0 68.95 -75.46 37.46 75.46 95.55 0 -70.58 -142.78 125.95 -137.89zm222.58 0l-33.11 158.52 0 -0.54c-5.43,27.69 -34.2,52.66 -65.69,52.66 -20.63,0 -33.66,-12.49 -33.66,-33.66 0,-9.77 2.17,-17.92 35.83,-176.98l-87.95 0c-35.29,166.13 -39.63,180.24 -39.63,200.87 0,50.49 34.2,86.32 89.03,86.32 32.03,0 61.35,-11.94 81.98,-33.12l-5.43 26.6 91.75 0 58.63 -280.67 -91.75 0zm206.84 287.19c76,0 132.46,-41.26 132.46,-103.15 0,-53.74 -43.43,-65.69 -93.92,-78.72 -31.49,-8.69 -36.92,-13.03 -36.92,-19.54 0,-12.49 19,-23.89 42.89,-23.89 22.26,0 49.4,10.86 69.49,26.06l41.8 -57c-29.31,-21.17 -66.23,-37.46 -110.75,-37.46 -71.66,0 -128.12,42.89 -128.12,103.69 0,52.12 40.72,62.43 94.46,76 33.66,8.69 36.37,14.66 36.37,20.09 0,14.11 -17.37,24.43 -44.52,24.43 -26.06,0 -60.8,-10.31 -84.15,-29.86l-45.06 54.83c29.86,26.6 76,44.52 125.95,44.52z"/>
  </g>
 </g>
</svg>
